Coordinates
version=1
nRows=14
nColumns=40
inDegrees=yes

Units are S.I. units (second, meters, Newtons, ...)
If the header above contains a line with 'inDegrees', this indicates whether rotational values are in degrees (yes) or radians (no).

endheader
time	pelvis_tilt	pelvis_list	pelvis_rotation	pelvis_tx	pelvis_ty	pelvis_tz	hip_flexion_r	hip_adduction_r	hip_rotation_r	knee_angle_r	knee_angle_r_beta	ankle_angle_r	subtalar_angle_r	mtp_angle_r	hip_flexion_l	hip_adduction_l	hip_rotation_l	knee_angle_l	knee_angle_l_beta	ankle_angle_l	subtalar_angle_l	mtp_angle_l	lumbar_extension	lumbar_bending	lumbar_rotation	arm_flex_r	arm_add_r	arm_rot_r	elbow_flex_r	pro_sup_r	wrist_flex_r	wrist_dev_r	arm_flex_l	arm_add_l	arm_rot_l	elbow_flex_l	pro_sup_l	wrist_flex_l	wrist_dev_l
      0.92000000	     -1.22612683	     -0.97457483	      2.74919507	      0.65607145	      0.94285479	      0.15813856	     20.04037056	     -6.09517714	    -15.43060745	     52.70311343	      0.91984286	     -5.02067252	    -11.04676266	      0.00000000	     -4.72971098	      1.10024971	    -19.10000733	      3.70037117	      0.06458366	     -2.96722166	     13.27649322	      0.00000000	     11.17196437	     -1.55729611	     -5.16718583	     34.22334996	    -13.99272731	     34.22334996	     77.70098385	     44.81070033	      0.00000000	      0.00000000	     34.22334996	    -13.99272731	     34.22334996	     77.70098385	     44.81070033	      0.00000000	      0.00000000
      0.92500000	     -1.16890070	     -1.10600242	      3.19411410	      0.66216113	      0.94296862	      0.15729982	     20.22814771	     -5.87884268	    -15.80208099	     51.18451730	      0.89333835	     -4.83639095	    -10.78652354	      0.00000000	     -5.24172189	      0.94187883	    -18.79443549	      3.55534503	      0.06205248	     -2.93228329	     13.53979628	      0.00000000	     11.08141212	     -1.43280009	     -5.49955766	     34.25508888	    -13.99759571	     34.25508888	     77.67543026	     44.81562622	      0.00000000	      0.00000000	     34.25508888	    -13.99759571	     34.25508888	     77.67543026	     44.81562622	      0.00000000	      0.00000000
      0.93000000	     -1.33991252	     -0.89697746	      3.45096363	      0.66822559	      0.94247048	      0.15696799	     20.82504363	     -6.01284975	    -15.89487509	     49.96828981	      0.87211118	     -4.59734130	    -10.62467111	      0.00000000	     -5.49922308	      1.15019621	    -18.69133714	      3.48978885	      0.06090831	     -2.84786768	     13.72079841	      0.00000000	     11.23417630	     -1.59999884	     -5.42547408	     34.25844282	    -13.99810957	     34.25844282	     77.67274057	     44.81613981	      0.00000000	      0.00000000	     34.25844282	    -13.99810957	     34.25844282	     77.67274057	     44.81613981	      0.00000000	      0.00000000
      0.93500000	     -1.15706692	     -1.25164621	      3.98826187	      0.67448218	      0.94272519	      0.15585195	     20.68263967	     -5.57292209	    -16.42053268	     48.08643605	      0.83926663	     -4.45922996	    -10.18070187	      0.00000000	     -6.16406245	      0.73544059	    -18.27320924	      3.29028445	      0.05742630	     -2.75994026	     14.01454463	      0.00000000	     11.04446707	     -1.17268405	     -5.88989353	     34.28141102	    -14.00162631	     34.28141102	     77.65436486	     44.81962506	      0.00000000	      0.00000000	     34.28141102	    -14.00162631	     34.28141102	     77.65436486	     44.81962506	      0.00000000	      0.00000000
      0.94000000	     -1.34829419	     -0.99903927	      4.26979250	      0.68057400	      0.94208615	      0.15543079	     21.23251031	     -5.78082853	    -16.53190471	     46.76448837	      0.81619430	     -4.26882376	    -10.06091362	      0.00000000	     -6.39473669	      0.99121829	    -18.14237449	      3.24494481	      0.05663497	     -2.69490666	     14.19635466	      0.00000000	     11.22097438	     -1.37914459	     -5.81803619	     34.28495857	    -14.00216899	     34.28495857	     77.65153530	     44.82015785	      0.00000000	      0.00000000	     34.28495857	    -14.00216899	     34.28495857	     77.65153530	     44.82015785	      0.00000000	      0.00000000
      0.94500000	     -1.17189532	     -1.34139050	      4.81728133	      0.68675979	      0.94218397	      0.15422974	     21.05321117	     -5.36616389	    -17.05608366	     44.77090392	      0.78139968	     -4.31882027	     -9.80203607	      0.00000000	     -7.02320887	      0.57993985	    -17.71970745	      3.08158386	      0.05378378	     -2.59649247	     14.40444863	      0.00000000	     11.01996850	     -0.99817635	     -6.41822120	     34.30965678	    -14.00594446	     34.30965678	     77.63188868	     44.82382942	      0.00000000	      0.00000000	     34.30965678	    -14.00594446	     34.30965678	     77.63188868	     44.82382942	      0.00000000	      0.00000000
      0.95000000	     -1.36133622	     -1.01330258	      5.04751813	      0.69298221	      0.94130613	      0.15387297	     21.59088975	     -5.70930720	    -17.26305949	     43.49151215	      0.75907008	     -4.12826953	     -9.74894959	      0.00000000	     -7.27678737	      0.92112054	    -17.71040762	      3.03619846	      0.05299166	     -2.46326690	     14.51569564	      0.00000000	     11.21603119	     -1.28316388	     -6.29149273	     34.31189684	    -14.00628654	     34.31189684	     77.63011255	     44.82415893	      0.00000000	      0.00000000	     34.31189684	    -14.00628654	     34.31189684	     77.63011255	     44.82415893	      0.00000000	      0.00000000
      0.95500000	     -1.25107084	     -1.32888735	      5.60354974	      0.69908665	      0.94122340	      0.15272629	     21.41288153	     -5.29744698	    -17.69827566	     41.33546921	      0.72144004	     -4.25742546	     -9.47859599	      0.00000000	     -7.80229278	      0.51979484	    -17.19258508	      2.92849841	      0.05111194	     -2.36937025	     14.73506652	      0.00000000	     11.07365227	     -0.94604717	     -6.88396744	     34.33304113	    -14.00951391	     34.33304113	     77.61338116	     44.82724373	      0.00000000	      0.00000000	     34.33304113	    -14.00951391	     34.33304113	     77.61338116	     44.82724373	      0.00000000	      0.00000000
      0.96000000	     -1.28657846	     -1.29855219	      6.01053052	      0.70522700	      0.94066035	      0.15190971	     21.54815331	     -5.30742219	    -18.05236535	     39.55262862	      0.69032360	     -4.32228830	     -9.42209022	      0.00000000	     -8.19190689	      0.51124074	    -16.92687094	      2.85177783	      0.04977291	     -2.29241402	     14.87638064	      0.00000000	     11.06462095	     -1.01863033	     -7.28502858	     34.35774702	    -14.01327995	     34.35774702	     77.59392193	     44.83078884	      0.00000000	      0.00000000	     34.35774702	    -14.01327995	     34.35774702	     77.59392193	     44.83078884	      0.00000000	      0.00000000
      0.96500000	     -1.51436407	     -0.94636203	      6.27121759	      0.71136757	      0.93957881	      0.15139145	     22.04722810	     -5.71058294	    -18.27053117	     38.15810574	      0.66598458	     -4.15745900	     -9.31540827	      0.00000000	     -8.39882849	      0.88229617	    -16.83298127	      2.82406545	      0.04928924	     -2.17581427	     15.03462425	      0.00000000	     11.28477836	     -1.28940092	     -7.18175394	     34.36123393	    -14.01381096	     34.36123393	     77.59118450	     44.83128367	      0.00000000	      0.00000000	     34.36123393	    -14.01381096	     34.36123393	     77.59118450	     44.83128367	      0.00000000	      0.00000000
      0.97000000	     -1.43113911	     -1.15264826	      6.76864000	      0.71752982	      0.93917725	      0.15029183	     21.87951578	     -5.45505931	    -18.76401904	     35.99802809	      0.62828411	     -4.39106100	     -9.18590236	      0.00000000	     -8.88598262	      0.59267474	    -16.45330720	      2.76999125	      0.04834547	     -2.00695183	     15.17163545	      0.00000000	     11.17204317	     -1.07437645	     -7.74389845	     34.38434826	    -14.01732846	     34.38434826	     77.57308620	     44.83453107	      0.00000000	      0.00000000	     34.38434826	    -14.01732846	     34.38434826	     77.57308620	     44.83453107	      0.00000000	      0.00000000
      0.97500000	     -1.55332901	     -1.04471735	      7.11770721	      0.72371481	      0.93825928	      0.14949973	     22.09046534	     -5.58227782	    -19.12728032	     34.23065457	      0.59743763	     -4.44134270	     -9.07075222	      0.00000000	     -9.18641543	      0.67720550	    -16.26554326	      2.72867576	      0.04762438	     -1.89198932	     15.29590839	      0.00000000	     11.26937227	     -1.18365340	     -8.04901402	     34.40530025	    -14.02051303	     34.40530025	     77.55675099	     44.83743004	      0.00000000	      0.00000000	     34.40530025	    -14.02051303	     34.40530025	     77.55675099	     44.83743004	      0.00000000	      0.00000000
      0.98000000	     -1.82447779	     -0.66432908	      7.39577719	      0.72977127	      0.93696928	      0.14894056	     22.57691230	     -6.05440478	    -19.40473018	     32.76201811	      0.57180509	     -4.30034726	     -8.90837011	      0.00000000	     -9.34364076	      1.07340079	    -16.12550655	      2.71009934	      0.04730016	     -1.79122212	     15.49088445	      0.00000000	     11.47085432	     -1.47121390	     -7.94895530	     34.40959283	    -14.02116489	     34.40959283	     77.55341445	     44.83801781	      0.00000000	      0.00000000	     34.40959283	    -14.02116489	     34.40959283	     77.55341445	     44.83801781	      0.00000000	      0.00000000
      0.98500000	     -1.79466926	     -0.77505822	      7.82052062	      0.73601123	      0.93625606	      0.14790810	     22.46790840	     -5.93335820	    -19.95989827	     30.66099687	      0.53513535	     -4.55481959	     -8.76800740	      0.00000000	     -9.78071937	      0.89082544	    -15.88370646	      2.69023326	      0.04695343	     -1.60028796	     15.58753075	      0.00000000	     11.43610633	     -1.36456517	     -8.48772417	     34.43430758	    -14.02491525	     34.43430758	     77.53425595	     44.84136787	      0.00000000	      0.00000000	     34.43430758	    -14.02491525	     34.43430758	     77.53425595	     44.84136787	      0.00000000	      0.00000000
